<svg id="e6eTzoWKl3L1" xmlns="http://www.w3.org/2000/svg" xmlns:xlink="http://www.w3.org/1999/xlink" viewBox="0 0 500 500" shape-rendering="geometricPrecision" text-rendering="geometricPrecision"><defs><filter id="e6eTzoWKl3L2-filter" x="-400%" width="600%" y="-400%" height="600%"><feGaussianBlur id="e6eTzoWKl3L2-filter-drop-shadow-0-blur" in="SourceAlpha" stdDeviation="5,5"/><feOffset id="e6eTzoWKl3L2-filter-drop-shadow-0-offset" dx="-5" dy="5" result="tmp"/><feFlood id="e6eTzoWKl3L2-filter-drop-shadow-0-flood" flood-color="rgb(113,127,133)"/><feComposite id="e6eTzoWKl3L2-filter-drop-shadow-0-composite" operator="in" in2="tmp"/><feMerge id="e6eTzoWKl3L2-filter-drop-shadow-0-merge"><feMergeNode id="e6eTzoWKl3L2-filter-drop-shadow-0-merge-node-1"/><feMergeNode id="e6eTzoWKl3L2-filter-drop-shadow-0-merge-node-2" in="SourceGraphic"/></feMerge></filter></defs><ellipse id="e6eTzoWKl3L2" rx="127.5" ry="132.824844" transform="matrix(1.960896 0 0 1.882178 249.985705 250.000001)" filter="url(#e6eTzoWKl3L2-filter)" fill="rgb(203,235,248)" stroke="none" stroke-width="0"/><g id="e6eTzoWKl3L3" transform="matrix(1 0 0 1 3.7121 23.802779)"><path id="e6eTzoWKl3L4" d="M-100.000001,0.000001C-100.000001,-55.228474,-55.228475,-100,0,-100C55.228475,-100,100,-55.228475,100,0C100,55.228475,-44.771525,300.000001,-100,300.000001C-155.228475,300.000001,-100.000001,55.228476,-100.000001,0.000001Z" transform="matrix(1 0 0 1 349.985705 150)" fill="rgb(251,137,137)" stroke="none" stroke-width="0"/><path id="e6eTzoWKl3L5" d="M-100,0C-100,-55.228475,-55.228475,-100,0,-100C55.228475,-100,107.438493,-55.228475,107.438493,0C107.438493,55.228475,162.666969,300,107.438494,300C52.210019,300,-100,55.228475,-100,0Z" transform="matrix(1 0 0 1 142.561506 150.000001)" fill="rgb(251,137,137)" stroke="none" stroke-width="0"/></g><path id="e6eTzoWKl3L6" d="M173.110788,215.117748Q277.952535,262.640339,332.795396,250.000001C387.638256,237.359662,374.062266,319.142664,173.110788,273.80278" transform="matrix(-1.165132 0.386944 0.730719 2.200278 378.579879 -424.549316)" fill="rgb(214,173,173)" stroke="rgb(251,137,137)" stroke-width="5"/><path id="e6eTzoWKl3L7" d="M-73.202985,0C-73.202985,-39.06083,-40.428892,-70.725889,0,-70.725889C40.428892,-70.725889,73.202985,-39.06083,73.202985,0C73.202985,39.06083,133.589857,274.25275,93.160965,274.25275C52.732073,274.25275,-73.202985,39.06083,-73.202985,0Z" transform="matrix(1 0 0 1 156.839035 179.274112)" fill="rgb(237,210,210)" stroke="none" stroke-width="0"/><path id="e6eTzoWKl3L8" d="M-73.202985,0C-73.202985,-39.06083,-40.428892,-70.725889,0,-70.725889C40.428892,-70.725889,73.202985,-39.06083,73.202985,0C73.202985,39.06083,-56.444178,280.156215,-96.87307,280.156215C-137.301961,280.156215,-73.202985,39.06083,-73.202985,0Z" transform="matrix(1 0 0 1 350.570875 173.370646)" fill="rgb(237,210,210)" stroke="none" stroke-width="0"/><path id="e6eTzoWKl3L9" d="M173.110788,215.117748Q277.952535,262.640339,332.795396,250.000001C387.638256,237.359662,374.062266,319.142664,173.110788,273.80278" transform="matrix(0.851308 0 0 1.198209 33.156367 -62.178873)" fill="rgb(237,210,210)" stroke="rgb(248,158,158)" stroke-width="5"/></svg>